<svg width="68" height="68" viewBox="0 0 68 68" fill="none" xmlns="http://www.w3.org/2000/svg">
<path d="M63.92 34.708C63.92 32.498 63.7217 30.373 63.3533 28.333H34V40.403H50.7733C50.0367 44.2847 47.8267 47.5713 44.5117 49.7813V57.6297H54.6267C60.52 52.1897 63.92 44.1997 63.92 34.708Z" fill="#4285F4"/>
<path d="M33.9991 65.1678C42.4141 65.1678 49.4691 62.3912 54.6258 57.6312L44.5108 49.7828C41.6774 51.6812 38.1074 52.8145 33.9991 52.8145C25.8674 52.8145 18.9824 47.3178 16.5458 39.9795H6.17578V48.0262C11.3041 58.1695 21.8158 65.1678 33.9991 65.1678Z" fill="#34A853"/>
<path d="M16.5454 39.9779C15.922 38.0796 15.5537 36.0396 15.5537 33.9996C15.5537 31.9596 15.922 29.9196 16.5454 28.0213V19.9746H6.17536C4.05036 24.2246 2.83203 28.9563 2.83203 33.9996C2.83203 39.0429 4.05036 43.7746 6.17536 48.0246L16.5454 39.9779Z" fill="#FBBC05"/>
<path d="M33.9991 15.243C38.5891 15.243 42.6691 16.8297 45.9274 19.8897L54.8524 10.9647C49.4408 5.92134 42.4141 2.83301 33.9991 2.83301C21.8158 2.83301 11.3041 9.83134 6.17578 19.9747L16.5458 28.0213C18.9824 20.683 25.8958 15.1863 33.9991 15.1863V15.243Z" fill="#EA4335"/>
</svg>
