<svg width="144" height="30" viewBox="0 0 144 30" fill="none" xmlns="http://www.w3.org/2000/svg">
<path d="M13.7147 2.87812C13.8045 2.60172 14.1955 2.60172 14.2853 2.87812L16.8513 10.7755C16.8915 10.8991 17.0067 10.9828 17.1366 10.9828H25.4404C25.731 10.9828 25.8519 11.3547 25.6168 11.5255L18.8989 16.4063C18.7937 16.4827 18.7497 16.6181 18.7899 16.7417L21.3559 24.6391C21.4457 24.9155 21.1294 25.1453 20.8942 24.9745L14.1763 20.0937C14.0712 20.0173 13.9288 20.0173 13.8237 20.0937L7.10576 24.9745C6.87065 25.1453 6.5543 24.9155 6.64411 24.6391L9.21012 16.7417C9.25028 16.6181 9.20628 16.4827 9.10114 16.4063L2.38324 11.5255C2.14812 11.3547 2.26895 10.9828 2.55957 10.9828H10.8634C10.9933 10.9828 11.1085 10.8991 11.1487 10.7755L13.7147 2.87812Z" fill="#F5C25A"/>
<path d="M42.7147 2.87812C42.8045 2.60172 43.1955 2.60172 43.2853 2.87812L45.8513 10.7755C45.8915 10.8991 46.0067 10.9828 46.1366 10.9828H54.4404C54.731 10.9828 54.8519 11.3547 54.6168 11.5255L47.8989 16.4063C47.7937 16.4827 47.7497 16.6181 47.7899 16.7417L50.3559 24.6391C50.4457 24.9155 50.1294 25.1453 49.8942 24.9745L43.1763 20.0937C43.0712 20.0173 42.9288 20.0173 42.8237 20.0937L36.1058 24.9745C35.8706 25.1453 35.5543 24.9155 35.6441 24.6391L38.2101 16.7417C38.2503 16.6181 38.2063 16.4827 38.1011 16.4063L31.3832 11.5255C31.1481 11.3547 31.269 10.9828 31.5596 10.9828H39.8634C39.9933 10.9828 40.1085 10.8991 40.1487 10.7755L42.7147 2.87812Z" fill="#F5C25A"/>
<path d="M71.7147 2.87812C71.8045 2.60172 72.1955 2.60172 72.2853 2.87812L74.8513 10.7755C74.8915 10.8991 75.0067 10.9828 75.1366 10.9828H83.4404C83.731 10.9828 83.8519 11.3547 83.6168 11.5255L76.8989 16.4063C76.7937 16.4827 76.7497 16.6181 76.7899 16.7417L79.3559 24.6391C79.4457 24.9155 79.1294 25.1453 78.8942 24.9745L72.1763 20.0937C72.0712 20.0173 71.9288 20.0173 71.8237 20.0937L65.1058 24.9745C64.8706 25.1453 64.5543 24.9155 64.6441 24.6391L67.2101 16.7417C67.2503 16.6181 67.2063 16.4827 67.1011 16.4063L60.3832 11.5255C60.1481 11.3547 60.269 10.9828 60.5596 10.9828H68.8634C68.9933 10.9828 69.1085 10.8991 69.1487 10.7755L71.7147 2.87812Z" fill="#F5C25A"/>
<path d="M100.715 2.87812C100.804 2.60172 101.196 2.60172 101.285 2.87812L103.851 10.7755C103.891 10.8991 104.007 10.9828 104.137 10.9828H112.44C112.731 10.9828 112.852 11.3547 112.617 11.5255L105.899 16.4063C105.794 16.4827 105.75 16.6181 105.79 16.7417L108.356 24.6391C108.446 24.9155 108.129 25.1453 107.894 24.9745L101.176 20.0937C101.071 20.0173 100.929 20.0173 100.824 20.0937L94.1058 24.9745C93.8706 25.1453 93.5543 24.9155 93.6441 24.6391L96.2101 16.7417C96.2503 16.6181 96.2063 16.4827 96.1011 16.4063L89.3832 11.5255C89.1481 11.3547 89.269 10.9828 89.5596 10.9828H97.8634C97.9933 10.9828 98.1085 10.8991 98.1487 10.7755L100.715 2.87812Z" fill="#F5C25A"/>
<path d="M129.715 2.87812C129.804 2.60172 130.196 2.60172 130.285 2.87812L132.851 10.7755C132.891 10.8991 133.007 10.9828 133.137 10.9828H141.44C141.731 10.9828 141.852 11.3547 141.617 11.5255L134.899 16.4063C134.794 16.4827 134.75 16.6181 134.79 16.7417L137.356 24.6391C137.446 24.9155 137.129 25.1453 136.894 24.9745L130.176 20.0937C130.071 20.0173 129.929 20.0173 129.824 20.0937L123.106 24.9745C122.871 25.1453 122.554 24.9155 122.644 24.6391L125.21 16.7417C125.25 16.6181 125.206 16.4827 125.101 16.4063L118.383 11.5255C118.148 11.3547 118.269 10.9828 118.56 10.9828H126.863C126.993 10.9828 127.109 10.8991 127.149 10.7755L129.715 2.87812Z" fill="#F5C25A"/>
</svg>
